<svg width="124" height="26" viewBox="0 0 124 26" fill="none" xmlns="http://www.w3.org/2000/svg">
  <path d="M14.6828 2.40043C14.6828 1.07494 15.757 0.000427246 17.0822 0.000427246H21.8812C23.2064 0.000427246 24.2806 1.07494 24.2806 2.40043V7.20043C24.2806 8.52591 23.2064 9.60043 21.8812 9.60043H17.0822C15.757 9.60043 14.6828 8.52591 14.6828 7.20043V2.40043Z" fill="#828EAD" />
  <path d="M14.6827 16.8004C14.6827 15.4749 15.757 14.4004 17.0822 14.4004H21.8812C23.2063 14.4004 24.2806 15.4749 24.2806 16.8004V21.6004C24.2806 22.9259 23.2063 24.0004 21.8812 24.0004H17.0822C15.757 24.0004 14.6827 22.9259 14.6827 21.6004V16.8004Z" fill="#828EAD" />
  <path d="M0.28595 16.8004C0.28595 15.4749 1.36023 14.4004 2.68542 14.4004H7.48435C8.80954 14.4004 9.88382 15.4749 9.88382 16.8004V21.6004C9.88382 22.9259 8.80954 24.0004 7.48435 24.0004H2.68542C1.36023 24.0004 0.28595 22.9259 0.28595 21.6004V16.8004Z" fill="#828EAD" />
  <path fill-rule="evenodd" clip-rule="evenodd" d="M14.6828 7.20043C14.6828 8.52591 13.6085 9.60043 12.2833 9.60043C10.9581 9.60043 9.88383 8.52591 9.88383 7.20043C9.88383 8.52591 8.80955 9.60043 7.48436 9.60043C8.80955 9.60043 9.88382 10.6749 9.88382 12.0004C9.88382 13.3259 8.80954 14.4004 7.48435 14.4004L9.88382 16.8004C9.88382 15.4749 10.9581 14.4004 12.2833 14.4004C13.6085 14.4004 14.6827 15.4749 14.6827 16.8004L17.0822 14.4004C15.757 14.4004 14.6827 13.3259 14.6827 12.0004C14.6827 10.6749 15.757 9.60043 17.0822 9.60043L14.6828 7.20043Z" fill="#828EAD" />
  <path d="M7.48436 0.000427246H2.68543C1.36024 0.000427246 0.285961 1.07494 0.285961 2.40043V7.20043C0.285961 8.52591 1.36024 9.60043 2.68543 9.60043H7.48436L9.88383 7.20043V2.40043C9.88383 1.07494 8.80955 0.000427246 7.48436 0.000427246Z" fill="#828EAD" />
  <path d="M9.88383 7.20043C9.88383 8.52591 8.80955 9.60043 7.48436 9.60043L9.88383 7.20043Z" fill="#828EAD" />
  <path d="M45.6834 9.32343C46.0043 9.22885 46.1777 8.87899 46.032 8.57775C44.7955 6.02091 42.2164 4.38318 39.1295 4.38318C36.9316 4.38318 35.1233 5.10341 33.6488 6.57157C32.2021 8.01203 31.4788 9.81261 31.4788 12.001C31.4788 14.1894 32.2021 15.99 33.6488 17.4581C35.1233 18.8986 36.9316 19.6188 39.1295 19.6188C42.2164 19.6188 44.7955 17.9811 46.032 15.4243C46.1777 15.123 46.0043 14.7732 45.6834 14.6786L43.2829 13.9711C43.0075 13.8899 42.7185 14.0282 42.5702 14.274C41.8601 15.45 40.5945 16.1562 39.1295 16.1562C37.9888 16.1562 37.0151 15.7684 36.2361 14.965C35.4572 14.1617 35.0677 13.1922 35.0677 12.001C35.0677 10.8099 35.4572 9.84031 36.2361 9.03698C37.0151 8.23364 37.9888 7.84583 39.1295 7.84583C40.5945 7.84583 41.8601 8.55202 42.5702 9.72803C42.7185 9.97379 43.0075 10.1121 43.2829 10.0309L45.6834 9.32343Z" fill="#828EAD" />
  <path d="M50.642 17.4581C52.1165 18.8986 53.9248 19.6188 56.1227 19.6188C58.3205 19.6188 60.1288 18.8986 61.6033 17.4581C63.0778 15.99 63.8012 14.1894 63.8012 12.001C63.8012 9.81261 63.0778 8.01203 61.6033 6.57157C60.1288 5.10341 58.3205 4.38318 56.1227 4.38318C53.9248 4.38318 52.1165 5.10341 50.642 6.57157C49.1953 8.01203 48.472 9.81261 48.472 12.001C48.472 14.1894 49.1953 15.99 50.642 17.4581ZM53.2293 9.03698C54.0083 8.23364 54.982 7.84583 56.1227 7.84583C57.2633 7.84583 58.237 8.23364 59.016 9.03698C59.795 9.84031 60.1845 10.8099 60.1845 12.001C60.1845 13.1922 59.795 14.1617 59.016 14.965C58.237 15.7684 57.2633 16.1562 56.1227 16.1562C54.982 16.1562 54.0083 15.7684 53.2293 14.965C52.4503 14.1617 52.0609 13.1922 52.0609 12.001C52.0609 10.8099 52.4503 9.84031 53.2293 9.03698Z" fill="#828EAD" />
  <path d="M69.09 19.2033C69.406 19.2033 69.6623 18.9471 69.6623 18.6309V10.7267C69.6623 8.98157 70.9977 7.67962 72.6947 7.67962C74.3918 7.67962 75.6993 8.98157 75.6993 10.7267V18.6309C75.6993 18.9471 75.9555 19.2033 76.2716 19.2033H78.6047C78.9207 19.2033 79.1769 18.9471 79.1769 18.6309V10.7267C79.1769 8.98157 80.5123 7.67962 82.2094 7.67962C83.9064 7.67962 85.214 8.98157 85.214 10.7267V18.6309C85.214 18.9471 85.4702 19.2033 85.7862 19.2033H88.0915C88.4075 19.2033 88.6637 18.9471 88.6637 18.6309V9.72951C88.6637 8.20594 88.1073 6.93169 87.0223 5.90674C85.9373 4.8818 84.5741 4.38318 82.9049 4.38318C81.2155 4.38318 79.8534 4.91985 78.8506 6.00915C78.5564 6.32872 78.0171 6.32863 77.724 6.0081C76.7284 4.91951 75.3897 4.38318 73.7241 4.38318C72.3655 4.38318 71.2209 4.79148 70.3045 5.6223C70.0757 5.82979 69.6623 5.68003 69.6623 5.37107C69.6623 5.05496 69.406 4.7987 69.09 4.7987H66.7569C66.4409 4.7987 66.1847 5.05496 66.1847 5.37107V18.6309C66.1847 18.9471 66.4409 19.2033 66.7569 19.2033H69.09Z" fill="#828EAD" />
  <path d="M93.9503 25.4361C94.2663 25.4361 94.5225 25.1799 94.5225 24.8637V19.3196C94.5225 18.8152 95.1183 18.522 95.5588 18.7675C96.5704 19.3314 97.6772 19.6189 98.8904 19.6189C100.893 19.6189 102.563 18.8986 103.926 17.4582C105.289 15.99 105.957 14.1894 105.957 12.001C105.957 9.81264 105.289 8.01206 103.926 6.5716C102.563 5.10344 100.893 4.3832 98.8904 4.3832C97.4392 4.3832 96.1403 4.79457 94.9744 5.59816C94.7875 5.72694 94.5225 5.59807 94.5225 5.3711C94.5225 5.05498 94.2663 4.79872 93.9503 4.79872H91.6172C91.3012 4.79872 91.045 5.05498 91.045 5.3711V24.8637C91.045 25.1799 91.3012 25.4361 91.6172 25.4361H93.9503ZM101.199 9.03701C101.951 9.84034 102.34 10.8099 102.34 12.001C102.34 13.1922 101.951 14.1617 101.199 14.9651C100.448 15.7684 99.5303 16.1562 98.4452 16.1562C97.3602 16.1562 96.4422 15.7684 95.691 14.9651C94.9398 14.1617 94.5782 13.1922 94.5782 12.001C94.5782 10.8099 94.9398 9.84034 95.691 9.03701C96.4422 8.23367 97.3602 7.84585 98.4452 7.84585C99.5303 7.84585 100.448 8.23367 101.199 9.03701Z" fill="#828EAD" />
  <path d="M110.509 17.4582C111.983 18.8986 113.792 19.6189 115.99 19.6189C118.187 19.6189 119.996 18.8986 121.47 17.4582C122.945 15.99 123.668 14.1894 123.668 12.001C123.668 9.81264 122.945 8.01206 121.47 6.5716C119.996 5.10344 118.187 4.3832 115.99 4.3832C113.792 4.3832 111.983 5.10344 110.509 6.5716C109.062 8.01206 108.339 9.81264 108.339 12.001C108.339 14.1894 109.062 15.99 110.509 17.4582ZM113.096 9.03701C113.875 8.23367 114.849 7.84585 115.99 7.84585C117.13 7.84585 118.104 8.23367 118.883 9.03701C119.662 9.84034 120.051 10.8099 120.051 12.001C120.051 13.1922 119.662 14.1617 118.883 14.9651C118.104 15.7684 117.13 16.1562 115.99 16.1562C114.849 16.1562 113.875 15.7684 113.096 14.9651C112.317 14.1617 111.928 13.1922 111.928 12.001C111.928 10.8099 112.317 9.84034 113.096 9.03701Z" fill="#828EAD" />
</svg>