<svg width="144" height="30" viewBox="0 0 144 30" fill="none" xmlns="http://www.w3.org/2000/svg">
  <path d="M16.7965 2.8C16.7965 1.2536 18.0499 0 19.5959 0H25.1947C26.7407 0 27.994 1.2536 27.994 2.8V8.4C27.994 9.9464 26.7407 11.2 25.1947 11.2H19.5959C18.0499 11.2 16.7965 9.9464 16.7965 8.4V2.8Z" fill="#1551E5" />
  <path d="M16.7965 19.6C16.7965 18.0536 18.0498 16.8 19.5959 16.8H25.1946C26.7407 16.8 27.994 18.0536 27.994 19.6V25.2C27.994 26.7464 26.7407 28 25.1946 28H19.5959C18.0498 28 16.7965 26.7464 16.7965 25.2V19.6Z" fill="#1551E5" />
  <path d="M0.000244141 19.6C0.000244141 18.0536 1.25357 16.8 2.79962 16.8H8.39838C9.94443 16.8 11.1978 18.0536 11.1978 19.6V25.2C11.1978 26.7464 9.94443 28 8.39838 28H2.79962C1.25357 28 0.000244141 26.7464 0.000244141 25.2V19.6Z" fill="#1551E5" />
  <path fill-rule="evenodd" clip-rule="evenodd" d="M16.7965 8.4C16.7965 9.9464 15.5432 11.2 13.9971 11.2C12.4511 11.2 11.1978 9.9464 11.1978 8.4C11.1978 9.9464 9.94445 11.2 8.39839 11.2C9.94445 11.2 11.1978 12.4536 11.1978 14C11.1978 15.5464 9.94443 16.8 8.39838 16.8L11.1978 19.6C11.1978 18.0536 12.4511 16.8 13.9971 16.8C15.5432 16.8 16.7965 18.0536 16.7965 19.6L19.5959 16.8C18.0498 16.8 16.7965 15.5464 16.7965 14C16.7965 12.4536 18.0498 11.2 19.5959 11.2L16.7965 8.4Z" fill="#1551E5" />
  <path d="M8.39839 0H2.79964C1.25358 0 0.000257809 1.2536 0.000257809 2.8V8.4C0.000257809 9.9464 1.25358 11.2 2.79964 11.2H8.39839L11.1978 8.4V2.8C11.1978 1.2536 9.94445 0 8.39839 0Z" fill="#1551E5" />
  <path d="M11.1978 8.4C11.1978 9.9464 9.94445 11.2 8.39839 11.2L11.1978 8.4Z" fill="#1551E5" />
  <path d="M52.964 10.8769C53.3384 10.7666 53.5407 10.3584 53.3707 10.007C51.9281 7.02397 48.9192 5.11328 45.3178 5.11328C42.7536 5.11328 40.6439 5.95355 38.9236 7.66641C37.2359 9.34695 36.392 11.4476 36.392 14.0007C36.392 16.5539 37.2359 18.6545 38.9236 20.3674C40.6439 22.0479 42.7536 22.8882 45.3178 22.8882C48.9192 22.8882 51.9281 20.9775 53.3707 17.9945C53.5407 17.6431 53.3384 17.2349 52.964 17.1246L50.1634 16.2991C49.8422 16.2045 49.505 16.3658 49.3319 16.6525C48.5035 18.0246 47.027 18.8484 45.3178 18.8484C43.987 18.8484 42.851 18.396 41.9422 17.4588C41.0334 16.5216 40.579 15.3904 40.579 14.0007C40.579 12.6111 41.0334 11.4799 41.9422 10.5427C42.851 9.60549 43.987 9.15304 45.3178 9.15304C47.027 9.15304 48.5035 9.97693 49.3319 11.3489C49.505 11.6357 49.8422 11.797 50.1634 11.7023L52.964 10.8769Z" fill="#171D45" />
  <path d="M58.749 20.3674C60.4693 22.0479 62.579 22.8882 65.1432 22.8882C67.7073 22.8882 69.817 22.0479 71.5373 20.3674C73.2575 18.6545 74.1014 16.5539 74.1014 14.0007C74.1014 11.4476 73.2575 9.34695 71.5373 7.66641C69.817 5.95355 67.7073 5.11328 65.1432 5.11328C62.579 5.11328 60.4693 5.95355 58.749 7.66641C57.0612 9.34695 56.2174 11.4476 56.2174 14.0007C56.2174 16.5539 57.0612 18.6545 58.749 20.3674ZM61.7676 10.5427C62.6764 9.60549 63.8124 9.15304 65.1432 9.15304C66.4739 9.15304 67.6099 9.60549 68.5187 10.5427C69.4275 11.4799 69.8819 12.6111 69.8819 14.0007C69.8819 15.3904 69.4275 16.5216 68.5187 17.4588C67.6099 18.396 66.4739 18.8484 65.1432 18.8484C63.8124 18.8484 62.6764 18.396 61.7676 17.4588C60.8588 16.5216 60.4044 15.3904 60.4044 14.0007C60.4044 12.6111 60.8588 11.4799 61.7676 10.5427Z" fill="#171D45" />
  <path d="M80.2717 22.4034C80.6404 22.4034 80.9393 22.1045 80.9393 21.7357V12.5141C80.9393 10.4781 82.4973 8.95913 84.4772 8.95913C86.4571 8.95913 87.9826 10.4781 87.9826 12.5141V21.7357C87.9826 22.1045 88.2815 22.4034 88.6502 22.4034H91.3721C91.7409 22.4034 92.0398 22.1045 92.0398 21.7357V12.5141C92.0398 10.4781 93.5977 8.95913 95.5776 8.95913C97.5575 8.95913 99.083 10.4781 99.083 12.5141V21.7357C99.083 22.1045 99.3819 22.4034 99.7506 22.4034H102.44C102.809 22.4034 103.108 22.1045 103.108 21.7357V11.3507C103.108 9.57317 102.459 8.08654 101.193 6.89077C99.9269 5.69501 98.3365 5.11328 96.3891 5.11328C94.4182 5.11328 92.829 5.7394 91.6591 7.01024C91.3158 7.38308 90.6867 7.38298 90.3447 7.00902C89.1831 5.739 87.6214 5.11328 85.6781 5.11328C84.0931 5.11328 82.7578 5.58964 81.6886 6.55892C81.4216 6.801 80.9393 6.62627 80.9393 6.26582C80.9393 5.89702 80.6404 5.59805 80.2717 5.59805H77.5498C77.1811 5.59805 76.8821 5.89702 76.8821 6.26582V21.7357C76.8821 22.1045 77.1811 22.4034 77.5498 22.4034H80.2717Z" fill="#171D45" />
  <path d="M109.275 29.6751C109.644 29.6751 109.943 29.3761 109.943 29.0073V22.5391C109.943 21.9507 110.638 21.6085 111.152 21.895C112.332 22.5528 113.623 22.8883 115.039 22.8883C117.376 22.8883 119.323 22.048 120.914 20.3674C122.504 18.6546 123.283 16.5539 123.283 14.0008C123.283 11.4477 122.504 9.34698 120.914 7.66644C119.323 5.95358 117.376 5.11331 115.039 5.11331C113.346 5.11331 111.83 5.59324 110.47 6.53076C110.252 6.68101 109.943 6.53065 109.943 6.26585C109.943 5.89705 109.644 5.59808 109.275 5.59808H106.553C106.185 5.59808 105.886 5.89705 105.886 6.26585V29.0073C105.886 29.3761 106.185 29.6751 106.553 29.6751H109.275ZM117.733 10.5427C118.609 11.48 119.064 12.6111 119.064 14.0008C119.064 15.3905 118.609 16.5216 117.733 17.4588C116.856 18.396 115.785 18.8485 114.519 18.8485C113.254 18.8485 112.183 18.396 111.306 17.4588C110.43 16.5216 110.008 15.3905 110.008 14.0008C110.008 12.6111 110.43 11.48 111.306 10.5427C112.183 9.60552 113.254 9.15307 114.519 9.15307C115.785 9.15307 116.856 9.60552 117.733 10.5427Z" fill="#171D45" />
  <path d="M128.594 20.3674C130.314 22.048 132.424 22.8883 134.988 22.8883C137.552 22.8883 139.662 22.048 141.382 20.3674C143.102 18.6546 143.946 16.5539 143.946 14.0008C143.946 11.4477 143.102 9.34698 141.382 7.66644C139.662 5.95358 137.552 5.11331 134.988 5.11331C132.424 5.11331 130.314 5.95358 128.594 7.66644C126.906 9.34698 126.062 11.4477 126.062 14.0008C126.062 16.5539 126.906 18.6546 128.594 20.3674ZM131.612 10.5427C132.521 9.60552 133.657 9.15307 134.988 9.15307C136.319 9.15307 137.455 9.60552 138.363 10.5427C139.272 11.48 139.727 12.6111 139.727 14.0008C139.727 15.3905 139.272 16.5216 138.363 17.4588C137.455 18.396 136.319 18.8485 134.988 18.8485C133.657 18.8485 132.521 18.396 131.612 17.4588C130.703 16.5216 130.249 15.3905 130.249 14.0008C130.249 12.6111 130.703 11.48 131.612 10.5427Z" fill="#171D45" />
</svg>